<svg id="visual" viewBox="0 0 960 540" width="960" height="540" xmlns="http://www.w3.org/2000/svg" xmlns:xlink="http://www.w3.org/1999/xlink" version="1.1"><path d="M0 467L26.7 469.2C53.3 471.3 106.7 475.7 160 477C213.3 478.3 266.7 476.7 320 472C373.3 467.3 426.7 459.7 480 456.8C533.3 454 586.7 456 640 461.3C693.3 466.7 746.7 475.3 800 476.7C853.3 478 906.7 472 933.3 469L960 466L960 541L933.3 541C906.7 541 853.3 541 800 541C746.7 541 693.3 541 640 541C586.7 541 533.3 541 480 541C426.7 541 373.3 541 320 541C266.7 541 213.3 541 160 541C106.7 541 53.3 541 26.7 541L0 541Z" fill="#266d51" stroke-linecap="round" stroke-linejoin="miter"></path></svg>